<?xml version="1.0" encoding="UTF-8" standalone="no"?>
<!-- Generator: Adobe Illustrator 24.0.3, SVG Export Plug-In . SVG Version: 6.00 Build 0)  -->

<svg
   version="1.1"
   id="Ebene_1"
   x="0px"
   y="0px"
   viewBox="0 0 283.47122 126.13"
   xml:space="preserve"
   sodipodi:docname="nfdi-logo-small.svg"
   inkscape:version="1.1.2 (0a00cf5339, 2022-02-04)"
   width="283.47122"
   height="126.13"
   xmlns:inkscape="http://www.inkscape.org/namespaces/inkscape"
   xmlns:sodipodi="http://sodipodi.sourceforge.net/DTD/sodipodi-0.dtd"
   xmlns="http://www.w3.org/2000/svg"
   xmlns:svg="http://www.w3.org/2000/svg"><defs
   id="defs103" /><sodipodi:namedview
   id="namedview101"
   pagecolor="#ffffff"
   bordercolor="#666666"
   borderopacity="1.0"
   inkscape:pageshadow="2"
   inkscape:pageopacity="0.0"
   inkscape:pagecheckerboard="0"
   showgrid="false"
   inkscape:zoom="0.84333982"
   inkscape:cx="390.11558"
   inkscape:cy="-40.908776"
   inkscape:window-width="1920"
   inkscape:window-height="1200"
   inkscape:window-x="0"
   inkscape:window-y="0"
   inkscape:window-maximized="1"
   inkscape:current-layer="Ebene_1"
   fit-margin-top="0"
   fit-margin-left="0"
   fit-margin-right="0"
   fit-margin-bottom="0" />
<style
   type="text/css"
   id="style2">
	.st0{fill:none;}
	.st1{fill:#B3BCC2;}
	.st2{fill:#FFFFFF;}
	.st3{fill:#0BBBEF;}
	.st4{fill:#A2C617;}
	.st5{fill:#8A959C;}
	.st6{fill:#45556A;}
</style>


<g
   id="g98"
   transform="translate(-70.86,-70.87)">
	<path
   class="st2"
   d="m 220.66,70.87 c -22.97,0 -41.65,18.68 -41.65,41.65 v 76.35 c 0,4.49 3.64,8.13 8.13,8.13 4.49,0 8.13,-3.64 8.13,-8.13 v -50.61 h 12.86 c 4.18,0 7.57,-3.46 7.57,-7.73 0,-4.27 -3.39,-7.73 -7.57,-7.73 h -12.86 v -10.28 c 0,-14 11.39,-25.39 25.39,-25.39 4.49,0 8.13,-3.64 8.13,-8.13 0,-4.49 -3.64,-8.13 -8.13,-8.13"
   id="path82" />
	<g
   id="g88">
		<path
   class="st2"
   d="m 147.31,196.99 c -4.49,0 -8.13,-3.64 -8.13,-8.13 l 0.06,-33.76 c 0,-14 -11.39,-25.39 -25.39,-25.39 -14,0 -25.39,11.39 -25.39,25.39 0,4.49 -3.64,8.13 -8.13,8.13 -4.49,0 -8.13,-3.64 -8.13,-8.13 0,-22.96 18.68,-41.65 41.65,-41.65 22.97,0 41.65,18.68 41.65,41.65 v 33.76 c 0,4.49 -3.7,8.13 -8.19,8.13"
   id="path84" />
		<path
   class="st3"
   d="m 89.8,187.5 c 0,5.23 -4.24,9.47 -9.47,9.47 -5.23,0 -9.47,-4.24 -9.47,-9.47 0,-5.23 4.24,-9.47 9.47,-9.47 5.23,0 9.47,4.24 9.47,9.47"
   id="path86" />
	</g>
	<g
   id="g94">
		<path
   class="st4"
   d="m 351.91,95.15 c 3.49,3.89 3.17,9.88 -0.72,13.37 -3.89,3.49 -9.88,3.16 -13.37,-0.73 -3.49,-3.89 -3.17,-9.88 0.72,-13.37 3.89,-3.49 9.88,-3.17 13.37,0.73"
   id="path90" />
		<path
   class="st2"
   d="m 352.99,133.86 v 55 c 0,4.49 -3.64,8.13 -8.13,8.13 v 0 c -4.49,0 -8.13,-3.64 -8.13,-8.13 v -55 c 0,-4.49 3.64,-8.13 8.13,-8.13 v 0 c 4.5,0 8.13,3.64 8.13,8.13 z"
   id="path92" />
	</g>
	<path
   class="st2"
   d="m 304.88,70.87 c -4.49,0 -8.13,3.64 -8.13,8.13 v 43.2 c -7.06,-5.47 -15.91,-8.73 -25.51,-8.73 -23.03,0 -41.77,18.73 -41.77,41.76 0,23.03 18.73,41.76 41.77,41.76 23.03,0 41.76,-18.73 41.76,-41.76 V 79 c 0,-4.49 -3.63,-8.13 -8.12,-8.13 z m -33.64,109.87 c -14.07,0 -25.51,-11.44 -25.51,-25.51 0,-14.06 11.44,-25.51 25.51,-25.51 14.06,0 25.51,11.44 25.51,25.51 -0.01,14.07 -11.45,25.51 -25.51,25.51 z"
   id="path96" />
</g>
</svg>
